<mxfile host="app.diagrams.net" modified="2023-05-31T14:22:36.305Z" agent="Mozilla/5.0 (Windows NT 10.0; Win64; x64) AppleWebKit/537.36 (KHTML, like Gecko) Chrome/113.0.0.0 Safari/537.36" version="21.2.9" etag="m4WzxptTRPSCvPBxVJlN" type="github">
  <diagram name="หน้า-1" id="xT70k1N3Pbm8d9o1cy2z">
    <mxGraphModel>
      <root>
        <mxCell id="0" />
        <mxCell id="1" parent="0" />
      </root>
    </mxGraphModel>
  </diagram>
</mxfile>
